<svg width="19" height="18" viewBox="0 0 19 18" fill="none" xmlns="http://www.w3.org/2000/svg">
<path d="M17.3125 0.78125H1.6875C1.37698 0.782177 1.07945 0.90594 0.859884 1.12551C0.640315 1.34508 0.516552 1.64261 0.515625 1.95312V12.1094C0.516552 12.4199 0.640315 12.7174 0.859884 12.937C1.07945 13.1566 1.37698 13.2803 1.6875 13.2812H7.15625V14.8438H5.59375C5.49015 14.8438 5.39079 14.8849 5.31754 14.9582C5.24428 15.0314 5.20312 15.1308 5.20312 15.2344V16.7969C5.20312 16.9005 5.24428 16.9998 5.31754 17.0731C5.39079 17.1463 5.49015 17.1875 5.59375 17.1875H13.4062C13.5099 17.1875 13.6092 17.1463 13.6825 17.0731C13.7557 16.9998 13.7969 16.9005 13.7969 16.7969V15.2344C13.7969 15.1308 13.7557 15.0314 13.6825 14.9582C13.6092 14.8849 13.5099 14.8438 13.4062 14.8438H11.8438V13.2812H17.3125C17.623 13.2803 17.9205 13.1566 18.1401 12.937C18.3597 12.7174 18.4834 12.4199 18.4844 12.1094V1.95312C18.4834 1.64261 18.3597 1.34508 18.1401 1.12551C17.9205 0.90594 17.623 0.782177 17.3125 0.78125ZM13.0156 15.625V16.4062H5.98438V15.625H13.0156ZM7.9375 14.8438V13.2812H11.0625V14.8438H7.9375ZM17.7031 12.1094C17.7031 12.213 17.662 12.3123 17.5887 12.3856C17.5155 12.4588 17.4161 12.5 17.3125 12.5H1.6875C1.5839 12.5 1.48454 12.4588 1.41129 12.3856C1.33803 12.3123 1.29688 12.213 1.29688 12.1094V10.9375H17.7031V12.1094ZM17.7031 10.1562H1.29688V1.95312C1.29688 1.84952 1.33803 1.75017 1.41129 1.67691C1.48454 1.60366 1.5839 1.5625 1.6875 1.5625H17.3125C17.4161 1.5625 17.5155 1.60366 17.5887 1.67691C17.662 1.75017 17.7031 1.84952 17.7031 1.95312V10.1562Z" fill="black"/>
</svg>
